<mxfile host="app.diagrams.net" modified="2021-06-18T16:44:11.510Z" agent="5.0 (Macintosh; Intel Mac OS X 10_15_7) AppleWebKit/537.36 (KHTML, like Gecko) Chrome/91.0.4472.101 Safari/537.36" etag="C6P-dTW104inr6obE80C" version="14.8.0" type="github">
  <diagram id="uDUzqy1bVPLQPqyA0Kb6" name="Page-1">
    <mxGraphModel dx="946" dy="614" grid="1" gridSize="10" guides="1" tooltips="1" connect="1" arrows="1" fold="1" page="1" pageScale="1" pageWidth="827" pageHeight="1169" math="0" shadow="0">
      <root>
        <mxCell id="0" />
        <mxCell id="1" parent="0" />
        <mxCell id="IaOmF9w9HwhS0B1iCCKS-11" value="" style="rounded=0;whiteSpace=wrap;html=1;" vertex="1" parent="1">
          <mxGeometry x="620" y="97.73" width="220" height="280" as="geometry" />
        </mxCell>
        <mxCell id="IaOmF9w9HwhS0B1iCCKS-2" value="code" style="shape=note;whiteSpace=wrap;html=1;backgroundOutline=1;darkOpacity=0.05;" vertex="1" parent="1">
          <mxGeometry x="690" y="120" width="80" height="100" as="geometry" />
        </mxCell>
        <mxCell id="IaOmF9w9HwhS0B1iCCKS-3" value="config" style="shape=note;whiteSpace=wrap;html=1;backgroundOutline=1;darkOpacity=0.05;" vertex="1" parent="1">
          <mxGeometry x="690" y="250" width="80" height="100" as="geometry" />
        </mxCell>
        <mxCell id="IaOmF9w9HwhS0B1iCCKS-1" value="project&lt;br&gt;(projectUid)" style="rounded=0;whiteSpace=wrap;html=1;" vertex="1" parent="1">
          <mxGeometry x="20" y="282.27272727272725" width="217.10526315789477" height="95.45454545454545" as="geometry" />
        </mxCell>
        <mxCell id="IaOmF9w9HwhS0B1iCCKS-4" value="page&lt;br&gt;(pageUid)" style="rounded=0;whiteSpace=wrap;html=1;" vertex="1" parent="1">
          <mxGeometry x="381.842105263158" y="180" width="188.1578947368421" height="81.81818181818181" as="geometry" />
        </mxCell>
        <mxCell id="IaOmF9w9HwhS0B1iCCKS-5" style="edgeStyle=orthogonalEdgeStyle;rounded=0;orthogonalLoop=1;jettySize=auto;html=1;exitX=1;exitY=0.5;exitDx=0;exitDy=0;entryX=0.008;entryY=0.4;entryDx=0;entryDy=0;entryPerimeter=0;" edge="1" parent="1" source="IaOmF9w9HwhS0B1iCCKS-1" target="IaOmF9w9HwhS0B1iCCKS-4">
          <mxGeometry x="20" y="180" as="geometry">
            <Array as="points">
              <mxPoint x="310" y="330" />
              <mxPoint x="310" y="213" />
            </Array>
          </mxGeometry>
        </mxCell>
        <mxCell id="IaOmF9w9HwhS0B1iCCKS-6" value="page&lt;br&gt;(pageUid)" style="rounded=0;whiteSpace=wrap;html=1;" vertex="1" parent="1">
          <mxGeometry x="381.842105263158" y="289.09090909090907" width="188.1578947368421" height="81.81818181818181" as="geometry" />
        </mxCell>
        <mxCell id="IaOmF9w9HwhS0B1iCCKS-8" style="edgeStyle=orthogonalEdgeStyle;rounded=0;orthogonalLoop=1;jettySize=auto;html=1;exitX=1;exitY=0.5;exitDx=0;exitDy=0;" edge="1" parent="1" source="IaOmF9w9HwhS0B1iCCKS-1" target="IaOmF9w9HwhS0B1iCCKS-6">
          <mxGeometry x="20" y="180" as="geometry" />
        </mxCell>
        <mxCell id="IaOmF9w9HwhS0B1iCCKS-7" value="..." style="rounded=0;whiteSpace=wrap;html=1;" vertex="1" parent="1">
          <mxGeometry x="381.842105263158" y="398.18181818181813" width="188.1578947368421" height="81.81818181818181" as="geometry" />
        </mxCell>
        <mxCell id="IaOmF9w9HwhS0B1iCCKS-9" style="edgeStyle=orthogonalEdgeStyle;rounded=0;orthogonalLoop=1;jettySize=auto;html=1;exitX=1;exitY=0.5;exitDx=0;exitDy=0;entryX=0;entryY=0.5;entryDx=0;entryDy=0;" edge="1" parent="1" source="IaOmF9w9HwhS0B1iCCKS-1" target="IaOmF9w9HwhS0B1iCCKS-7">
          <mxGeometry x="20" y="180" as="geometry" />
        </mxCell>
        <mxCell id="IaOmF9w9HwhS0B1iCCKS-12" value="list" style="rounded=0;whiteSpace=wrap;html=1;" vertex="1" parent="1">
          <mxGeometry x="840" y="97.73" width="50" height="60" as="geometry" />
        </mxCell>
        <mxCell id="IaOmF9w9HwhS0B1iCCKS-13" value="edit" style="rounded=0;whiteSpace=wrap;html=1;" vertex="1" parent="1">
          <mxGeometry x="840" y="156" width="50" height="60" as="geometry" />
        </mxCell>
        <mxCell id="IaOmF9w9HwhS0B1iCCKS-14" value="..." style="rounded=0;whiteSpace=wrap;html=1;" vertex="1" parent="1">
          <mxGeometry x="840" y="216" width="50" height="60" as="geometry" />
        </mxCell>
      </root>
    </mxGraphModel>
  </diagram>
</mxfile>
